<svg width="377" height="94" viewBox="0 0 377 94" fill="none" xmlns="http://www.w3.org/2000/svg">
<path d="M43.648 0.399994H58.368V61.712C58.368 86.416 39.936 90 27.392 90C14.976 90 11.52 85.136 0.64 85.136L5.248 69.776C10.368 71.056 14.336 75.152 17.92 79.12C22.272 83.728 26.24 88.336 31.36 87.952C39.552 87.568 43.648 80.016 43.648 72.208V0.399994ZM101.602 24.848C105.57 24.848 110.69 25.744 114.914 27.792C120.418 30.352 123.874 35.088 124.258 39.824C124.386 44.816 121.698 47.888 118.114 50.064C114.786 51.984 110.818 53.136 107.618 54.416C104.546 55.568 101.474 56.976 98.786 59.024C94.434 62.224 92.002 66.832 93.154 74C92.386 73.232 91.362 72.464 90.85 71.568C90.21 63.376 92.898 59.152 97.122 55.44C99.298 53.52 101.986 51.856 104.93 49.808C108.386 47.248 110.306 44.56 110.306 41.872C110.434 38.672 108.258 35.6 103.906 33.168C97.634 29.328 91.234 28.304 86.37 31.12C79.074 35.344 77.41 46.48 81.122 58.128C84.194 67.088 89.442 75.792 97.634 80.272C105.058 84.368 116.578 85.008 123.362 79.248L124.642 80.528C118.626 86.416 110.434 90 101.602 90C83.554 90 68.962 75.408 68.962 57.36C68.962 39.44 83.554 24.848 101.602 24.848ZM164.352 24.848C168.32 24.848 173.44 25.744 177.664 27.792C183.168 30.352 186.624 35.088 187.008 39.824C187.136 44.816 184.448 47.888 180.864 50.064C177.536 51.984 173.568 53.136 170.368 54.416C167.296 55.568 164.224 56.976 161.536 59.024C157.184 62.224 154.752 66.832 155.904 74C155.136 73.232 154.112 72.464 153.6 71.568C152.96 63.376 155.648 59.152 159.872 55.44C162.048 53.52 164.736 51.856 167.68 49.808C171.136 47.248 173.056 44.56 173.056 41.872C173.184 38.672 171.008 35.6 166.656 33.168C160.384 29.328 153.984 28.304 149.12 31.12C141.824 35.344 140.16 46.48 143.872 58.128C146.944 67.088 152.192 75.792 160.384 80.272C167.808 84.368 179.328 85.008 186.112 79.248L187.392 80.528C181.376 86.416 173.184 90 164.352 90C146.304 90 131.712 75.408 131.712 57.36C131.712 39.44 146.304 24.848 164.352 24.848ZM194.078 86.672L229.278 27.152H227.23C215.71 27.152 214.558 39.184 193.438 38.288L196.382 24.848C211.23 27.28 212.638 24.848 228.51 24.848H241.182C243.998 24.848 243.998 26.64 243.102 28.304L208.414 87.696H209.182C219.934 87.696 225.822 72.08 245.79 74.896L242.718 90C230.43 85.008 225.438 90 208.286 90H195.742C193.822 90 192.926 88.464 194.078 86.672ZM270.644 90C260.404 90.256 256.308 82.832 256.308 74.768C256.308 57.488 256.308 64.656 256.308 47.504C256.308 42.384 256.692 30.224 251.828 24.848H269.364C269.364 48.144 269.62 47.248 269.364 70.672C269.364 93.84 292.532 74.64 292.532 53.264C292.532 43.152 292.532 57.36 292.532 47.504C292.532 42.384 293.044 30.224 287.924 24.848H305.716C305.716 47.12 305.716 45.072 305.716 67.472C305.716 72.592 305.204 84.624 310.324 90H293.812C291.508 85.008 293.172 75.28 295.604 70.032C296.372 67.984 296.116 66.448 295.22 65.808C294.324 65.296 292.916 65.808 291.636 68.624C287.284 78.096 282.548 89.872 270.644 90ZM364.307 38.544C350.355 38.544 346.259 28.432 336.275 26.768C333.075 26.128 330.515 27.152 328.851 28.944C326.035 32.016 326.931 37.648 334.867 41.488C343.187 45.456 351.891 49.936 359.571 54.416C376.339 64.272 366.099 90 348.563 90C342.163 90 338.707 88.208 334.867 87.184C331.027 86.16 327.059 86.032 320.019 89.872L317.843 74.256C327.699 71.568 332.691 73.872 338.323 77.84C350.227 86.032 357.267 85.52 360.211 82.064C363.283 77.968 360.979 70.16 353.811 65.936C346.387 61.584 335.763 56.336 330.131 53.776C323.731 50.576 318.099 45.584 318.867 38.16C319.507 30.48 326.675 24.848 336.659 24.848C347.155 24.848 354.323 28.304 363.155 24.848L364.307 38.544Z" fill="white"/>
</svg>
